<svg width="26" height="26" viewBox="0 0 26 26" fill="none" xmlns="http://www.w3.org/2000/svg">
<path fill-rule="evenodd" clip-rule="evenodd" d="M25.178 19.9006V6.10079C25.177 4.61139 24.585 3.18329 23.532 2.13009C22.478 1.07689 21.05 0.484787 19.561 0.483887H5.76105C4.27205 0.484787 2.84404 1.07689 1.79004 2.13009C0.737039 3.18329 0.145043 4.61139 0.144043 6.10079V19.9006C0.145043 21.3898 0.738077 22.8176 1.79108 23.8706C2.84408 24.9235 4.27205 25.5154 5.76105 25.5163H19.561C21.05 25.5154 22.4781 24.9235 23.5311 23.8706C24.5841 22.8176 25.177 21.3898 25.178 19.9006ZM17.5341 5.50219V10.089H12.9471C12.9471 8.87249 13.4301 7.70579 14.2911 6.84569C15.1511 5.98549 16.3171 5.50219 17.5341 5.50219ZM12.9471 20.5515V15.9647H17.5341C17.5341 17.1812 17.051 18.3479 16.191 19.2081C15.33 20.0683 14.1641 20.5515 12.9471 20.5515ZM12.326 15.9647H7.73907C7.73907 17.1812 8.22207 18.3479 9.08307 19.2081C9.94307 20.0683 11.109 20.5515 12.326 20.5515V15.9647ZM12.326 10.7066V15.2934H7.73907C7.73907 14.0769 8.22207 12.9103 9.08307 12.0501C9.94307 11.1899 11.109 10.7066 12.326 10.7066ZM17.5341 15.2946H12.9471V10.7078H17.5341V15.2946Z" fill="#85949C"/>
</svg>
